<svg version="1.1" xmlns="http://www.w3.org/2000/svg" viewBox="0 0 1000 1000">
<style type="text/css"> .st0{fill:#E6E6E6;}</style><g><path class="st0" d="M770.8,614.3c-13,41.8-35.2,79.6-64.1,110.9c-4.5,4.9-11.6,6-17.3,2.7l-49.9-28.8
		c-21.1,17.9-45.2,31.9-71.2,41.1v57.7c0,6.6-4.6,12.3-11,13.7c-40.9,9.1-85,9.6-128,0c-6.4-1.4-11-7.1-11-13.7v-57.7
		c-26.1-9.1-50.3-23.1-71.2-41.1L297,727.9c-5.6,3.3-12.9,2.1-17.3-2.7c-28.9-31.4-51.1-69.1-64.1-110.9c-1.9-6.3,0.7-13.1,6.4-16.4
		l49.9-28.8c-5-27.2-5-55.1,0-82.3L222,458c-5.7-3.3-8.4-10.1-6.4-16.4c13-41.8,35.2-79.6,64.1-110.9c4.5-4.9,11.6-6,17.3-2.7
		l49.8,28.8c21.1-17.9,45.2-31.9,71.2-41.1v-57.7c0-6.6,4.6-12.3,11-13.7c40.9-9.1,85-9.6,128,0c6.4,1.4,11,7.1,11,13.7v57.5
		c26.1,9.1,50.3,23.1,71.2,41.1l49.9-28.8c5.6-3.3,12.9-2.1,17.3,2.7c28.9,31.4,51.1,69.1,64.1,110.9c1.9,6.3-0.7,13.1-6.4,16.4
		l-49.9,28.8c5,27.2,5,55.1,0,82.3l49.9,28.8C769.9,601.1,772.5,607.9,770.8,614.3z M586.8,527.9c0-51.7-42.1-93.8-93.8-93.8
		c-51.7,0-93.8,42.1-93.8,93.8c0,51.7,42.1,93.8,93.8,93.8C544.7,621.6,586.8,579.5,586.8,527.9z"/></g></svg>
