<svg version="1.1" xmlns="http://www.w3.org/2000/svg" viewBox="0 0 1000 1000"><style type="text/css"> .st0{fill:#E6E6E6;}</style><g><path class="st0" d="M841.1,489.5c0,2.8-1.4,6.8-3.2,8.9L808,534.7c-2.3,2.8-7.2,5.1-10.8,5.1c-2.8,0-6.8-1.4-9-3.2l-275.7-227
		c-2.2-1.7-6.2-3.2-9-3.2c-2.8,0-6.8,1.4-9,3.2l-275.6,227c-2.2,1.8-6.2,3.2-9,3.2c-3.7,0-8.5-2.3-10.9-5.1l-29.9-36.3
		c-1.8-2.2-3.2-6.2-3.2-9c0-3.7,2.3-8.5,5.1-10.8l296.6-244.3c8.6-7.1,24.6-12.8,35.7-12.8c11.1,0,27.1,5.7,35.7,12.8l104.9,86.3
		v-85.1c0-7.8,6.3-14.1,14.1-14.1h65.6c7.8,0,14.1,6.3,14.1,14.1v162.3l98,80.8C838.7,480.9,841.1,485.8,841.1,489.5z M503.5,354.4
		c2.8,0,6.8,1.4,9,3.2l216,177.8v192.2c0,10.3-8.4,18.8-18.8,18.8L578.5,746h0c-10.3,0-18.8-8.4-18.8-18.8c0,0,0,0,0-0.1V615.1
		c0-10.4-8.4-18.8-18.8-18.8h-75c-10.4,0-18.8,8.4-18.8,18.8v112.2c0,10.3-8.4,18.7-18.7,18.8l-131.3,0.3
		c-10.3,0-18.8-8.4-18.8-18.8V535.5l216.1-178C496.7,355.8,500.8,354.4,503.5,354.4z"/></g></svg>
