<svg version="1.1" xmlns="http://www.w3.org/2000/svg" viewBox="0 0 100 100"><g><path d="M74.3,48.2c0,10.4-6.4,19.3-15.7,22.4c-1.2,0.2-1.6-0.5-1.6-1.1c0-0.8,0-4.7,0-7.8c0-2.2-0.7-3.6-1.6-4.3
		c5.2-0.6,10.8-1.3,10.8-10.4c0-2.6-0.9-3.9-2.4-5.5c0.2-0.6,1-3.1-0.2-6.4c-2-0.6-6.5,2.5-6.5,2.5c-1.9-0.5-3.9-0.8-5.9-0.8
		c-2,0-4,0.3-5.9,0.8c0,0-4.5-3.1-6.5-2.5c-1.3,3.2-0.5,5.8-0.2,6.4c-1.5,1.6-2.2,2.9-2.2,5.5c0,9,5.3,9.8,10.5,10.4
		c-0.7,0.6-1.3,1.7-1.5,3.2c-1.3,0.6-4.8,1.7-6.8-2c-1.3-2.2-3.6-2.4-3.6-2.4c-2.3,0-0.2,1.4-0.2,1.4c1.5,0.7,2.6,3.4,2.6,3.4
		c1.4,4.2,7.9,2.8,7.9,2.8c0,2,0,5.2,0,5.8c0,0.6-0.4,1.3-1.6,1.1c-9.3-3.1-15.9-12-15.9-22.4c0-13,9.9-22.9,23-22.9
		C63.7,25.3,74.3,35.2,74.3,48.2z M36.3,56.8c0.2,0.1,0.3,0.2,0.2,0.4c-0.1,0.1-0.3,0.2-0.4,0.1c-0.2-0.1-0.3-0.2-0.2-0.4
		C36,56.8,36.1,56.8,36.3,56.8z M37.4,57.7c0.2,0.2,0.2,0.4,0.1,0.5c-0.1,0.1-0.3,0.1-0.5-0.1c-0.2-0.2-0.2-0.4-0.1-0.5
		C37,57.5,37.2,57.6,37.4,57.7z M38.4,59c0.2,0.2,0.2,0.5,0,0.6c-0.1,0.1-0.4,0-0.5-0.2c-0.1-0.2-0.1-0.5,0-0.6
		C38,58.7,38.3,58.8,38.4,59z M39.5,60.3c0.2,0.2,0.2,0.5,0.1,0.6C39.5,61,39.3,61,39,60.8c-0.2-0.2-0.3-0.5-0.1-0.6
		C39,60.1,39.3,60.1,39.5,60.3z M41,61.2c0.3,0.1,0.5,0.3,0.4,0.5c-0.1,0.2-0.3,0.3-0.6,0.2c-0.3-0.1-0.5-0.3-0.4-0.5
		S40.8,61.1,41,61.2z M42.9,62.2c-0.3,0-0.5-0.1-0.5-0.3c0-0.2,0.2-0.3,0.5-0.3c0.3,0,0.5,0.1,0.5,0.3C43.3,62,43.1,62.2,42.9,62.2z
		 M45.1,61.5c0,0.2-0.2,0.4-0.4,0.4c-0.3,0.1-0.5-0.1-0.6-0.2c0-0.2,0.2-0.4,0.4-0.5C44.8,61.2,45.1,61.3,45.1,61.5z"/></g></svg>
